<svg xmlns="http://www.w3.org/2000/svg" direction="ltr" width="1024" height="1024" viewBox="435.9040404040404 2100.3498335486697 1024 1024" stroke-linecap="round" stroke-linejoin="round" data-color-mode="light" class="tl-container tl-theme__force-sRGB tl-theme__light" style="background-color: transparent;"><defs /><g transform="matrix(1, 0, 0, 1, 435.904, 2100.3498)" opacity="1"><g data-lovart-layer-name="SVG 2"><g transform="scale(1, 1)"><g>
<g stroke-width="2.00" fill="none" stroke-linecap="butt">
<path stroke="#b9d9fe" vector-effect="non-scaling-stroke" d="   M 676.04 533.01   Q 689.49 541.85 700.82 553.89" />
<path stroke="#91b6f3" vector-effect="non-scaling-stroke" d="   M 700.82 553.89   Q 713.28 569.29 721.04 587.06   C 723.75 593.28 725.48 600.16 727.52 607.16" />
<path stroke="#8dabdd" vector-effect="non-scaling-stroke" d="   M 727.52 607.16   Q 728.33 612.35 729.25 618.70   C 730.88 630.04 730.67 640.62 729.32 652.18   A 0.21 0.21 0.0 0 0 729.72 652.29   Q 730.49 650.55 732.86 644.41   Q 744.21 615.09 779.71 522.45   Q 780.67 519.93 780.24 518.00   Q 770.87 475.88 765.61 453.47   A 1.17 1.15 -34.4 0 1 765.80 452.51   L 785.31 425.85   A 2.29 2.28 -36.4 0 0 785.63 423.77   L 774.79 391.64   A 0.61 0.61 0.0 0 1 775.17 390.86   C 780.19 389.12 784.70 386.32 788.48 382.45   C 805.74 364.75 809.12 338.19 800.91 315.06   C 795.90 300.93 784.23 286.88 768.27 284.95   C 749.59 282.68 734.11 293.94 725.43 309.66   Q 722.44 315.08 721.04 318.75   A 0.54 0.54 0.0 0 1 720.40 319.08   L 677.35 307.90   A 6.20 6.20 0.0 0 0 674.25 307.90   L 631.81 319.03   A 1.00 1.00 0.0 0 1 630.62 318.42   C 622.63 298.05 604.85 280.44 580.96 285.55   C 568.62 288.18 557.79 299.29 552.75 310.70   Q 541.71 335.69 550.53 361.73   C 554.80 374.34 563.96 386.00 576.64 390.97   A 0.65 0.65 0.0 0 1 577.01 391.78   L 565.92 424.13   A 2.22 2.19 35.3 0 0 566.29 426.22   C 571.34 432.43 576.42 438.47 580.59 444.83   Q 600.54 475.25 603.93 513.86   A 0.49 0.49 0.0 0 0 604.44 514.31   Q 642.75 512.30 676.04 533.01" />
<path stroke="#1f62d1" vector-effect="non-scaling-stroke" d="   M 727.52 607.16   Q 733.73 596.02 737.72 584.79   Q 739.89 578.66 741.07 575.84   Q 742.68 572.01 744.45 566.91   Q 749.34 552.81 755.22 539.83   C 758.23 533.21 759.95 526.51 762.24 521.06   C 762.88 519.50 762.90 517.51 762.59 516.18   Q 760.65 508.08 758.96 499.98" />
<path stroke="#4785dc" vector-effect="non-scaling-stroke" d="   M 758.96 499.98   L 751.20 466.41   A 0.74 0.73 -22.9 0 0 750.08 465.96   L 677.20 513.88   A 2.55 2.53 73.5 0 0 676.05 516.01   L 676.04 533.01" />
<path stroke="#4b90f2" vector-effect="non-scaling-stroke" d="   M 758.96 499.98   C 755.09 503.42 751.73 506.38 747.76 510.42   Q 737.69 520.64 728.21 528.20   Q 726.87 529.26 718.40 538.15   Q 715.50 541.20 705.03 550.86   A 3.88 3.77 7.9 0 1 704.28 551.41   Q 702.24 552.58 700.82 553.89" />
<path stroke="#91b6f3" vector-effect="non-scaling-stroke" d="   M 219.62 639.79   Q 220.01 645.57 222.14 653.68   Q 230.26 684.57 251.35 705.39   Q 260.07 714.01 263.14 716.37   Q 282.96 731.64 308.26 737.33   Q 317.51 739.41 333.51 739.41   Q 574.25 739.46 612.50 739.38   C 631.75 739.34 653.27 732.39 668.85 720.85   C 681.53 711.47 692.08 701.05 699.30 687.47" />
<path stroke="#8dabdd" vector-effect="non-scaling-stroke" d="   M 699.30 687.47   Q 706.87 674.43 710.33 659.81   Q 719.08 622.82 702.98 588.75   C 688.74 558.61 661.00 537.81 627.92 532.55" />
<path stroke="#91b6f3" vector-effect="non-scaling-stroke" d="   M 627.92 532.55   Q 608.24 529.39 588.03 534.27   A 0.71 0.71 0.0 0 1 587.16 533.54   Q 588.11 517.42 584.94 501.63" />
<path stroke="#8dabdd" vector-effect="non-scaling-stroke" d="   M 584.94 501.63   Q 583.24 492.57 580.60 483.93   C 576.62 470.92 570.26 459.99 562.50 448.72   Q 555.96 439.21 545.82 429.88   C 506.29 393.48 447.98 385.23 400.39 410.13   Q 373.24 424.33 355.07 449.20   Q 335.57 475.89 331.32 511.09   A 1.24 1.23 -86.8 0 1 330.11 512.18   C 307.03 512.49 283.65 520.28 265.12 534.16   Q 233.51 557.83 222.79 595.32   Q 216.97 615.68 219.62 639.79" />
<path stroke="#1f62d1" vector-effect="non-scaling-stroke" d="   M 584.94 501.63   Q 582.83 497.18 580.23 487.96   Q 577.54 478.41 568.70 461.82   Q 562.29 449.79 549.24 436.80   C 543.55 431.14 536.35 425.98 528.62 419.77   Q 516.55 410.10 499.73 405.18   Q 485.41 401.00 483.46 400.54   Q 477.82 399.24 468.31 398.75   C 453.70 398.00 438.34 398.76 424.50 402.84   Q 406.34 408.20 390.71 418.96   Q 384.31 423.36 374.22 431.46   C 366.39 437.74 359.53 444.30 354.87 453.29   Q 351.47 459.84 345.74 468.89   C 342.81 473.52 340.84 478.50 339.60 483.08   Q 336.42 494.83 332.22 511.93   A 1.70 1.68 2.5 0 1 330.83 513.19   C 325.46 513.97 318.79 514.09 313.22 515.30   C 300.49 518.06 287.41 522.91 276.00 530.04   Q 268.51 534.72 266.72 535.96   Q 257.79 542.14 249.25 551.26   Q 247.79 552.83 239.76 563.71   C 236.46 568.17 234.64 572.72 231.55 578.27   Q 229.01 582.82 227.04 589.96   Q 222.07 607.96 221.57 611.08   Q 220.17 619.89 220.87 631.75   Q 221.10 635.57 219.62 639.79" />
<path stroke="#1f62d1" vector-effect="non-scaling-stroke" d="   M 627.92 532.55   Q 632.83 537.22 642.58 539.27   Q 652.74 541.41 662.74 547.97   Q 669.81 552.60 670.52 553.07   C 690.38 566.33 703.61 587.60 708.41 610.97   Q 710.85 622.87 711.38 630.50   Q 712.11 640.94 710.76 647.08   Q 709.23 654.00 705.15 668.73   C 703.73 673.87 700.64 680.94 699.30 687.47" />
<path stroke="#5e93dc" vector-effect="non-scaling-stroke" d="   M 582.21 375.15   A 1.10 1.09 -72.3 0 0 583.54 374.47   L 586.35 366.79   A 1.92 1.73 75.5 0 1 586.52 366.47   L 603.35 342.61   A 5.39 5.32 67.4 0 0 604.28 340.31   Q 605.73 331.04 603.79 321.93   C 602.26 314.75 597.80 305.57 590.82 302.94   C 581.18 299.30 572.62 308.02 568.67 316.04   Q 557.98 337.75 567.90 360.01   C 570.37 365.56 576.13 373.47 582.21 375.15" />
<path stroke="#5e93dc" vector-effect="non-scaling-stroke" d="   M 769.87 375.16   C 775.95 373.44 781.67 365.49 784.11 359.92   Q 793.92 337.59 783.10 315.92   C 779.10 307.91 770.49 299.23 760.86 302.93   C 753.88 305.60 749.47 314.81 747.98 322.01   Q 746.09 331.14 747.59 340.41   A 5.40 5.33 -67.7 0 0 748.53 342.70   L 765.51 366.49   A 1.92 1.74 -75.8 0 1 765.68 366.81   L 768.54 374.48   A 1.10 1.09 72.0 0 0 769.87 375.16" />
<path stroke="#4785dc" vector-effect="non-scaling-stroke" d="   M 676.03 474.92   Q 677.25 474.92 677.75 474.75   C 684.05 472.63 694.08 469.45 701.99 466.13   Q 711.98 461.94 721.34 458.80   C 730.00 455.90 736.71 452.85 746.65 449.04   A 3.87 3.85 7.5 0 0 748.42 447.69   L 766.59 422.85   A 2.75 2.74 54.4 0 0 766.99 420.40   Q 763.03 408.11 757.69 393.88   C 756.05 389.50 754.38 383.91 752.50 378.18   C 750.21 371.15 744.41 365.83 740.50 360.23   Q 730.33 345.64 726.11 340.23   Q 724.12 337.68 722.60 337.26   Q 708.17 333.28 677.00 324.98   Q 676.57 324.86 675.83 324.86   Q 675.09 324.86 674.66 324.98   Q 643.51 333.37 629.09 337.39   Q 627.57 337.81 625.59 340.37   Q 621.38 345.79 611.25 360.40   C 607.36 366.01 601.57 371.35 599.30 378.39   C 597.44 384.12 595.78 389.72 594.15 394.10   Q 588.85 408.34 584.92 420.65   A 2.75 2.74 -54.6 0 0 585.33 423.09   L 603.57 447.89   A 3.87 3.85 -7.6 0 0 605.34 449.23   C 615.29 453.01 622.01 456.05 630.68 458.92   Q 640.04 462.04 650.05 466.20   C 657.97 469.50 668.00 472.65 674.31 474.76   Q 674.81 474.92 676.03 474.92" />
<path stroke="#4785dc" vector-effect="non-scaling-stroke" d="   M 643.60 393.61   A 0.59 0.59 0.0 0 0 644.28 393.04   Q 644.53 383.61 644.30 379.30   Q 643.95 372.75 639.56 369.54   C 632.54 364.43 624.31 370.58 623.51 378.38   C 622.15 391.55 634.23 392.06 643.60 393.61" />
<path stroke="#4785dc" vector-effect="non-scaling-stroke" d="   M 708.16 393.36   C 717.54 392.03 729.60 391.80 728.55 378.64   C 727.93 370.84 719.87 364.52 712.75 369.45   Q 708.30 372.55 707.80 379.07   Q 707.47 383.36 707.50 392.77   A 0.58 0.58 0.0 0 0 708.16 393.36" />
<path stroke="#4785dc" vector-effect="non-scaling-stroke" d="   M 693.84 409.24   Q 676.59 398.86 659.24 408.46   Q 658.14 409.07 658.80 410.62" />
<path stroke="#8ac1fd" vector-effect="non-scaling-stroke" d="   M 658.80 410.62   L 653.57 399.45   A 1.21 1.21 0.0 0 0 651.67 399.06   Q 642.24 407.47 637.04 411.83   C 635.47 413.15 634.65 414.66 634.36 416.56   Q 633.27 423.88 633.66 431.87   Q 633.82 435.25 634.49 437.42   A 5.16 5.14 -79.1 0 0 636.13 439.85   Q 647.99 449.59 661.28 457.82   Q 663.60 459.25 666.60 459.70   C 674.24 460.84 684.41 461.58 690.42 457.69   C 696.08 454.03 697.57 452.80 703.33 449.76   Q 709.77 446.35 715.01 440.53   Q 716.70 438.64 717.03 437.00   Q 718.23 431.06 717.83 421.51   C 717.71 418.63 717.70 415.16 715.77 412.98   Q 713.52 410.44 709.90 406.64   A 1.46 1.11 3.7 0 0 709.67 406.44   L 699.62 399.07   A 0.76 0.76 0.0 0 0 698.54 399.26   Q 695.28 404.24 693.84 409.24" />
<path stroke="#5e93dc" vector-effect="non-scaling-stroke" d="   M 658.80 410.62   C 659.78 416.72 665.65 420.78 670.73 423.35   A 1.28 1.26 12.5 0 1 671.43 424.43   Q 671.55 427.92 671.49 431.79   Q 671.45 433.75 669.44 435.00   Q 659.77 441.01 651.41 433.20   A 1.28 1.28 0.0 0 0 649.30 433.81   L 649.22 434.12   A 4.14 4.13 30.5 0 0 650.24 438.02   Q 661.52 449.79 675.09 440.91   A 1.22 1.22 0.0 0 1 676.34 440.86   C 678.22 441.91 680.07 443.20 682.43 444.00   Q 692.41 447.39 701.34 437.94   A 4.16 4.14 62.1 0 0 702.42 434.42   L 702.40 434.33   A 1.15 1.15 0.0 0 0 700.46 433.69   Q 692.73 441.17 682.32 434.93   Q 680.27 433.70 680.16 431.52   Q 679.98 428.10 680.30 424.15   A 1.24 1.23 77.3 0 1 680.89 423.21   Q 684.23 421.23 688.92 417.66   Q 692.73 414.76 693.84 409.24" />
</g>
<path fill="#1b57bb" d="   M 727.52 607.16   Q 733.73 596.02 737.72 584.79   Q 739.89 578.66 741.07 575.84   Q 742.68 572.01 744.45 566.91   Q 749.34 552.81 755.22 539.83   C 758.23 533.21 759.95 526.51 762.24 521.06   C 762.88 519.50 762.90 517.51 762.59 516.18   Q 760.65 508.08 758.96 499.98   L 751.20 466.41   A 0.74 0.73 -22.9 0 0 750.08 465.96   L 677.20 513.88   A 2.55 2.53 73.5 0 0 676.05 516.01   L 676.04 533.01   Q 642.75 512.30 604.44 514.31   A 0.49 0.49 0.0 0 1 603.93 513.86   Q 600.54 475.25 580.59 444.83   C 576.42 438.47 571.34 432.43 566.29 426.22   A 2.22 2.19 35.3 0 1 565.92 424.13   L 577.01 391.78   A 0.65 0.65 0.0 0 0 576.64 390.97   C 563.96 386.00 554.80 374.34 550.53 361.73   Q 541.71 335.69 552.75 310.70   C 557.79 299.29 568.62 288.18 580.96 285.55   C 604.85 280.44 622.63 298.05 630.62 318.42   A 1.00 1.00 0.0 0 0 631.81 319.03   L 674.25 307.90   A 6.20 6.20 0.0 0 1 677.35 307.90   L 720.40 319.08   A 0.54 0.54 0.0 0 0 721.04 318.75   Q 722.44 315.08 725.43 309.66   C 734.11 293.94 749.59 282.68 768.27 284.95   C 784.23 286.88 795.90 300.93 800.91 315.06   C 809.12 338.19 805.74 364.75 788.48 382.45   C 784.70 386.32 780.19 389.12 775.17 390.86   A 0.61 0.61 0.0 0 0 774.79 391.64   L 785.63 423.77   A 2.29 2.28 -36.4 0 1 785.31 425.85   L 765.80 452.51   A 1.17 1.15 -34.4 0 0 765.61 453.47   Q 770.87 475.88 780.24 518.00   Q 780.67 519.93 779.71 522.45   Q 744.21 615.09 732.86 644.41   Q 730.49 650.55 729.72 652.29   A 0.21 0.21 0.0 0 1 729.32 652.18   C 730.67 640.62 730.88 630.04 729.25 618.70   Q 728.33 612.35 727.52 607.16   Z   M 582.21 375.15   A 1.10 1.09 -72.3 0 0 583.54 374.47   L 586.35 366.79   A 1.92 1.73 75.5 0 1 586.52 366.47   L 603.35 342.61   A 5.39 5.32 67.4 0 0 604.28 340.31   Q 605.73 331.04 603.79 321.93   C 602.26 314.75 597.80 305.57 590.82 302.94   C 581.18 299.30 572.62 308.02 568.67 316.04   Q 557.98 337.75 567.90 360.01   C 570.37 365.56 576.13 373.47 582.21 375.15   Z   M 769.87 375.16   C 775.95 373.44 781.67 365.49 784.11 359.92   Q 793.92 337.59 783.10 315.92   C 779.10 307.91 770.49 299.23 760.86 302.93   C 753.88 305.60 749.47 314.81 747.98 322.01   Q 746.09 331.14 747.59 340.41   A 5.40 5.33 -67.7 0 0 748.53 342.70   L 765.51 366.49   A 1.92 1.74 -75.8 0 1 765.68 366.81   L 768.54 374.48   A 1.10 1.09 72.0 0 0 769.87 375.16   Z   M 676.03 474.92   Q 677.25 474.92 677.75 474.75   C 684.05 472.63 694.08 469.45 701.99 466.13   Q 711.98 461.94 721.34 458.80   C 730.00 455.90 736.71 452.85 746.65 449.04   A 3.87 3.85 7.5 0 0 748.42 447.69   L 766.59 422.85   A 2.75 2.74 54.4 0 0 766.99 420.40   Q 763.03 408.11 757.69 393.88   C 756.05 389.50 754.38 383.91 752.50 378.18   C 750.21 371.15 744.41 365.83 740.50 360.23   Q 730.33 345.64 726.11 340.23   Q 724.12 337.68 722.60 337.26   Q 708.17 333.28 677.00 324.98   Q 676.57 324.86 675.83 324.86   Q 675.09 324.86 674.66 324.98   Q 643.51 333.37 629.09 337.39   Q 627.57 337.81 625.59 340.37   Q 621.38 345.79 611.25 360.40   C 607.36 366.01 601.57 371.35 599.30 378.39   C 597.44 384.12 595.78 389.72 594.15 394.10   Q 588.85 408.34 584.92 420.65   A 2.75 2.74 -54.6 0 0 585.33 423.09   L 603.57 447.89   A 3.87 3.85 -7.6 0 0 605.34 449.23   C 615.29 453.01 622.01 456.05 630.68 458.92   Q 640.04 462.04 650.05 466.20   C 657.97 469.50 668.00 472.65 674.31 474.76   Q 674.81 474.92 676.03 474.92   Z" />
<path fill="#a1cefd" d="   M 582.21 375.15   C 576.13 373.47 570.37 365.56 567.90 360.01   Q 557.98 337.75 568.67 316.04   C 572.62 308.02 581.18 299.30 590.82 302.94   C 597.80 305.57 602.26 314.75 603.79 321.93   Q 605.73 331.04 604.28 340.31   A 5.39 5.32 67.4 0 1 603.35 342.61   L 586.52 366.47   A 1.92 1.73 75.5 0 0 586.35 366.79   L 583.54 374.47   A 1.10 1.09 -72.3 0 1 582.21 375.15   Z" />
<path fill="#a1cefd" d="   M 769.87 375.16   A 1.10 1.09 72.0 0 1 768.54 374.48   L 765.68 366.81   A 1.92 1.74 -75.8 0 0 765.51 366.49   L 748.53 342.70   A 5.40 5.33 -67.7 0 1 747.59 340.41   Q 746.09 331.14 747.98 322.01   C 749.47 314.81 753.88 305.60 760.86 302.93   C 770.49 299.23 779.10 307.91 783.10 315.92   Q 793.92 337.59 784.11 359.92   C 781.67 365.49 775.95 373.44 769.87 375.16   Z" />
<path fill="#72b3fd" d="   M 675.83 324.86   Q 676.57 324.86 677.00 324.98   Q 708.17 333.28 722.60 337.26   Q 724.12 337.68 726.11 340.23   Q 730.33 345.64 740.50 360.23   C 744.41 365.83 750.21 371.15 752.50 378.18   C 754.38 383.91 756.05 389.50 757.69 393.88   Q 763.03 408.11 766.99 420.40   A 2.75 2.74 54.4 0 1 766.59 422.85   L 748.42 447.69   A 3.87 3.85 7.5 0 1 746.65 449.04   C 736.71 452.85 730.00 455.90 721.34 458.80   Q 711.98 461.94 701.99 466.13   C 694.08 469.45 684.05 472.63 677.75 474.75   Q 677.25 474.92 676.03 474.92   Q 674.81 474.92 674.31 474.76   C 668.00 472.65 657.97 469.50 650.05 466.20   Q 640.04 462.04 630.68 458.92   C 622.01 456.05 615.29 453.01 605.34 449.23   A 3.87 3.85 -7.6 0 1 603.57 447.89   L 585.33 423.09   A 2.75 2.74 -54.6 0 1 584.92 420.65   Q 588.85 408.34 594.15 394.10   C 595.78 389.72 597.44 384.12 599.30 378.39   C 601.57 371.35 607.36 366.01 611.25 360.40   Q 621.38 345.79 625.59 340.37   Q 627.57 337.81 629.09 337.39   Q 643.51 333.37 674.66 324.98   Q 675.09 324.86 675.83 324.86   Z   M 643.60 393.61   A 0.59 0.59 0.0 0 0 644.28 393.04   Q 644.53 383.61 644.30 379.30   Q 643.95 372.75 639.56 369.54   C 632.54 364.43 624.31 370.58 623.51 378.38   C 622.15 391.55 634.23 392.06 643.60 393.61   Z   M 708.16 393.36   C 717.54 392.03 729.60 391.80 728.55 378.64   C 727.93 370.84 719.87 364.52 712.75 369.45   Q 708.30 372.55 707.80 379.07   Q 707.47 383.36 707.50 392.77   A 0.58 0.58 0.0 0 0 708.16 393.36   Z   M 693.84 409.24   Q 676.59 398.86 659.24 408.46   Q 658.14 409.07 658.80 410.62   L 653.57 399.45   A 1.21 1.21 0.0 0 0 651.67 399.06   Q 642.24 407.47 637.04 411.83   C 635.47 413.15 634.65 414.66 634.36 416.56   Q 633.27 423.88 633.66 431.87   Q 633.82 435.25 634.49 437.42   A 5.16 5.14 -79.1 0 0 636.13 439.85   Q 647.99 449.59 661.28 457.82   Q 663.60 459.25 666.60 459.70   C 674.24 460.84 684.41 461.58 690.42 457.69   C 696.08 454.03 697.57 452.80 703.33 449.76   Q 709.77 446.35 715.01 440.53   Q 716.70 438.64 717.03 437.00   Q 718.23 431.06 717.83 421.51   C 717.71 418.63 717.70 415.16 715.77 412.98   Q 713.52 410.44 709.90 406.64   A 1.46 1.11 3.7 0 0 709.67 406.44   L 699.62 399.07   A 0.76 0.76 0.0 0 0 698.54 399.26   Q 695.28 404.24 693.84 409.24   Z" />
<path fill="#1b57bb" d="   M 643.60 393.61   C 634.23 392.06 622.15 391.55 623.51 378.38   C 624.31 370.58 632.54 364.43 639.56 369.54   Q 643.95 372.75 644.30 379.30   Q 644.53 383.61 644.28 393.04   A 0.59 0.59 0.0 0 1 643.60 393.61   Z" />
<path fill="#1b57bb" d="   M 708.16 393.36   A 0.58 0.58 0.0 0 1 707.50 392.77   Q 707.47 383.36 707.80 379.07   Q 708.30 372.55 712.75 369.45   C 719.87 364.52 727.93 370.84 728.55 378.64   C 729.60 391.80 717.54 392.03 708.16 393.36   Z" />
<path fill="#1b57bb" d="   M 584.94 501.63   Q 582.83 497.18 580.23 487.96   Q 577.54 478.41 568.70 461.82   Q 562.29 449.79 549.24 436.80   C 543.55 431.14 536.35 425.98 528.62 419.77   Q 516.55 410.10 499.73 405.18   Q 485.41 401.00 483.46 400.54   Q 477.82 399.24 468.31 398.75   C 453.70 398.00 438.34 398.76 424.50 402.84   Q 406.34 408.20 390.71 418.96   Q 384.31 423.36 374.22 431.46   C 366.39 437.74 359.53 444.30 354.87 453.29   Q 351.47 459.84 345.74 468.89   C 342.81 473.52 340.84 478.50 339.60 483.08   Q 336.42 494.83 332.22 511.93   A 1.70 1.68 2.5 0 1 330.83 513.19   C 325.46 513.97 318.79 514.09 313.22 515.30   C 300.49 518.06 287.41 522.91 276.00 530.04   Q 268.51 534.72 266.72 535.96   Q 257.79 542.14 249.25 551.26   Q 247.79 552.83 239.76 563.71   C 236.46 568.17 234.64 572.72 231.55 578.27   Q 229.01 582.82 227.04 589.96   Q 222.07 607.96 221.57 611.08   Q 220.17 619.89 220.87 631.75   Q 221.10 635.57 219.62 639.79   Q 216.97 615.68 222.79 595.32   Q 233.51 557.83 265.12 534.16   C 283.65 520.28 307.03 512.49 330.11 512.18   A 1.24 1.23 -86.8 0 0 331.32 511.09   Q 335.57 475.89 355.07 449.20   Q 373.24 424.33 400.39 410.13   C 447.98 385.23 506.29 393.48 545.82 429.88   Q 555.96 439.21 562.50 448.72   C 570.26 459.99 576.62 470.92 580.60 483.93   Q 583.24 492.57 584.94 501.63   Z" />
<path fill="#236ce7" d="   M 584.94 501.63   Q 588.11 517.42 587.16 533.54   A 0.71 0.71 0.0 0 0 588.03 534.27   Q 608.24 529.39 627.92 532.55   Q 632.83 537.22 642.58 539.27   Q 652.74 541.41 662.74 547.97   Q 669.81 552.60 670.52 553.07   C 690.38 566.33 703.61 587.60 708.41 610.97   Q 710.85 622.87 711.38 630.50   Q 712.11 640.94 710.76 647.08   Q 709.23 654.00 705.15 668.73   C 703.73 673.87 700.64 680.94 699.30 687.47   C 692.08 701.05 681.53 711.47 668.85 720.85   C 653.27 732.39 631.75 739.34 612.50 739.38   Q 574.25 739.46 333.51 739.41   Q 317.51 739.41 308.26 737.33   Q 282.96 731.64 263.14 716.37   Q 260.07 714.01 251.35 705.39   Q 230.26 684.57 222.14 653.68   Q 220.01 645.57 219.62 639.79   Q 221.10 635.57 220.87 631.75   Q 220.17 619.89 221.57 611.08   Q 222.07 607.96 227.04 589.96   Q 229.01 582.82 231.55 578.27   C 234.64 572.72 236.46 568.17 239.76 563.71   Q 247.79 552.83 249.25 551.26   Q 257.79 542.14 266.72 535.96   Q 268.51 534.72 276.00 530.04   C 287.41 522.91 300.49 518.06 313.22 515.30   C 318.79 514.09 325.46 513.97 330.83 513.19   A 1.70 1.68 2.5 0 0 332.22 511.93   Q 336.42 494.83 339.60 483.08   C 340.84 478.50 342.81 473.52 345.74 468.89   Q 351.47 459.84 354.87 453.29   C 359.53 444.30 366.39 437.74 374.22 431.46   Q 384.31 423.36 390.71 418.96   Q 406.34 408.20 424.50 402.84   C 438.34 398.76 453.70 398.00 468.31 398.75   Q 477.82 399.24 483.46 400.54   Q 485.41 401.00 499.73 405.18   Q 516.55 410.10 528.62 419.77   C 536.35 425.98 543.55 431.14 549.24 436.80   Q 562.29 449.79 568.70 461.82   Q 577.54 478.41 580.23 487.96   Q 582.83 497.18 584.94 501.63   Z" />
<path fill="#a1cefd" d="   M 658.80 410.62   C 659.78 416.72 665.65 420.78 670.73 423.35   A 1.28 1.26 12.5 0 1 671.43 424.43   Q 671.55 427.92 671.49 431.79   Q 671.45 433.75 669.44 435.00   Q 659.77 441.01 651.41 433.20   A 1.28 1.28 0.0 0 0 649.30 433.81   L 649.22 434.12   A 4.14 4.13 30.5 0 0 650.24 438.02   Q 661.52 449.79 675.09 440.91   A 1.22 1.22 0.0 0 1 676.34 440.86   C 678.22 441.91 680.07 443.20 682.43 444.00   Q 692.41 447.39 701.34 437.94   A 4.16 4.14 62.1 0 0 702.42 434.42   L 702.40 434.33   A 1.15 1.15 0.0 0 0 700.46 433.69   Q 692.73 441.17 682.32 434.93   Q 680.27 433.70 680.16 431.52   Q 679.98 428.10 680.30 424.15   A 1.24 1.23 77.3 0 1 680.89 423.21   Q 684.23 421.23 688.92 417.66   Q 692.73 414.76 693.84 409.24   Q 695.28 404.24 698.54 399.26   A 0.76 0.76 0.0 0 1 699.62 399.07   L 709.67 406.44   A 1.46 1.11 3.7 0 1 709.90 406.64   Q 713.52 410.44 715.77 412.98   C 717.70 415.16 717.71 418.63 717.83 421.51   Q 718.23 431.06 717.03 437.00   Q 716.70 438.64 715.01 440.53   Q 709.77 446.35 703.33 449.76   C 697.57 452.80 696.08 454.03 690.42 457.69   C 684.41 461.58 674.24 460.84 666.60 459.70   Q 663.60 459.25 661.28 457.82   Q 647.99 449.59 636.13 439.85   A 5.16 5.14 -79.1 0 1 634.49 437.42   Q 633.82 435.25 633.66 431.87   Q 633.27 423.88 634.36 416.56   C 634.65 414.66 635.47 413.15 637.04 411.83   Q 642.24 407.47 651.67 399.06   A 1.21 1.21 0.0 0 1 653.57 399.45   L 658.80 410.62   Z" />
<path fill="#1b57bb" d="   M 693.84 409.24   Q 692.73 414.76 688.92 417.66   Q 684.23 421.23 680.89 423.21   A 1.24 1.23 77.3 0 0 680.30 424.15   Q 679.98 428.10 680.16 431.52   Q 680.27 433.70 682.32 434.93   Q 692.73 441.17 700.46 433.69   A 1.15 1.15 0.0 0 1 702.40 434.33   L 702.42 434.42   A 4.16 4.14 62.1 0 1 701.34 437.94   Q 692.41 447.39 682.43 444.00   C 680.07 443.20 678.22 441.91 676.34 440.86   A 1.22 1.22 0.0 0 0 675.09 440.91   Q 661.52 449.79 650.24 438.02   A 4.14 4.13 30.5 0 1 649.22 434.12   L 649.30 433.81   A 1.28 1.28 0.0 0 1 651.41 433.20   Q 659.77 441.01 669.44 435.00   Q 671.45 433.75 671.49 431.79   Q 671.55 427.92 671.43 424.43   A 1.28 1.26 12.5 0 0 670.73 423.35   C 665.65 420.78 659.78 416.72 658.80 410.62   Q 658.14 409.07 659.24 408.46   Q 676.59 398.86 693.84 409.24   Z" />
<path fill="#72b3fd" d="   M 758.96 499.98   C 755.09 503.42 751.73 506.38 747.76 510.42   Q 737.69 520.64 728.21 528.20   Q 726.87 529.26 718.40 538.15   Q 715.50 541.20 705.03 550.86   A 3.88 3.77 7.9 0 1 704.28 551.41   Q 702.24 552.58 700.82 553.89   Q 689.49 541.85 676.04 533.01   L 676.05 516.01   A 2.55 2.53 73.5 0 1 677.20 513.88   L 750.08 465.96   A 0.74 0.73 -22.9 0 1 751.20 466.41   L 758.96 499.98   Z" />
<path fill="#236ce7" d="   M 758.96 499.98   Q 760.65 508.08 762.59 516.18   C 762.90 517.51 762.88 519.50 762.24 521.06   C 759.95 526.51 758.23 533.21 755.22 539.83   Q 749.34 552.81 744.45 566.91   Q 742.68 572.01 741.07 575.84   Q 739.89 578.66 737.72 584.79   Q 733.73 596.02 727.52 607.16   C 725.48 600.16 723.75 593.28 721.04 587.06   Q 713.28 569.29 700.82 553.89   Q 702.24 552.58 704.28 551.41   A 3.88 3.77 7.9 0 0 705.03 550.86   Q 715.50 541.20 718.40 538.15   Q 726.87 529.26 728.21 528.20   Q 737.69 520.64 747.76 510.42   C 751.73 506.38 755.09 503.42 758.96 499.98   Z" />
<path fill="#1b57bb" d="   M 699.30 687.47   C 700.64 680.94 703.73 673.87 705.15 668.73   Q 709.23 654.00 710.76 647.08   Q 712.11 640.94 711.38 630.50   Q 710.85 622.87 708.41 610.97   C 703.61 587.60 690.38 566.33 670.52 553.07   Q 669.81 552.60 662.74 547.97   Q 652.74 541.41 642.58 539.27   Q 632.83 537.22 627.92 532.55   C 661.00 537.81 688.74 558.61 702.98 588.75   Q 719.08 622.82 710.33 659.81   Q 706.87 674.43 699.30 687.47   Z" />
</g></g></g></g></svg>